<svg width="1920" height="93" viewBox="0 0 1920 93" fill="none" xmlns="http://www.w3.org/2000/svg">
<path d="M1080.04 46.4453V73H1072.26V52.9375H1067.17V73H1059.39V46.4453H1080.04ZM1105.68 59.6641C1105.68 61.3672 1105.49 63.0391 1105.12 64.6797C1104.76 66.3047 1104.16 67.7812 1103.31 69.1094C1102.47 70.4375 1101.35 71.5 1099.96 72.2969C1098.59 73.0781 1096.88 73.4688 1094.83 73.4688C1092.95 73.4688 1091.34 73.0859 1089.98 72.3203C1088.62 71.5391 1087.5 70.5 1086.62 69.2031C1085.75 67.8906 1085.1 66.4141 1084.68 64.7734C1084.26 63.1172 1084.05 61.4141 1084.05 59.6641C1084.05 57.1172 1084.41 54.8125 1085.15 52.75C1085.88 50.6719 1087.05 49.0234 1088.64 47.8047C1090.25 46.5859 1092.34 45.9766 1094.92 45.9766C1097.08 45.9766 1098.96 46.5156 1100.57 47.5938C1102.18 48.6562 1103.43 50.2031 1104.32 52.2344C1105.23 54.2656 1105.68 56.7422 1105.68 59.6641ZM1091.9 59.7578C1091.9 61.3359 1092 62.6641 1092.2 63.7422C1092.42 64.8203 1092.75 65.6328 1093.19 66.1797C1093.62 66.7266 1094.19 67 1094.88 67C1095.61 67 1096.19 66.7344 1096.61 66.2031C1097.03 65.6562 1097.34 64.8359 1097.52 63.7422C1097.71 62.6484 1097.8 61.2891 1097.8 59.6641C1097.8 58.0391 1097.71 56.6953 1097.52 55.6328C1097.34 54.5703 1097.03 53.7734 1096.61 53.2422C1096.19 52.7109 1095.61 52.4453 1094.88 52.4453C1093.84 52.4453 1093.09 53.0391 1092.6 54.2266C1092.13 55.4141 1091.9 57.2578 1091.9 59.7578ZM1123.91 46.4453H1132.21L1125.16 59.1719L1132.77 73H1124.24L1117.47 59.5234V73H1109.69V46.4453H1117.47V59.3125L1123.91 46.4453ZM1145.57 45.9766C1148.21 45.9766 1150.3 46.7656 1151.83 48.3438C1153.38 49.9219 1154.15 52.3359 1154.15 55.5859V73H1148.55L1147.23 69.4844H1147.09C1146.53 70.375 1145.93 71.1172 1145.29 71.7109C1144.66 72.3047 1143.95 72.7422 1143.13 73.0234C1142.34 73.3203 1141.38 73.4688 1140.27 73.4688C1138.76 73.4688 1137.54 73.0547 1136.62 72.2266C1135.7 71.3984 1135.02 70.3281 1134.6 69.0156C1134.2 67.7031 1133.99 66.3281 1133.99 64.8906C1133.99 62.0469 1134.75 59.9219 1136.27 58.5156C1137.8 57.1094 1140.02 56.3516 1142.92 56.2422L1146.39 56.1016V55.4219C1146.39 54.3438 1146.18 53.5312 1145.76 52.9844C1145.35 52.4375 1144.71 52.1641 1143.84 52.1641C1143.07 52.1641 1142.22 52.3281 1141.28 52.6562C1140.36 52.9688 1139.3 53.4609 1138.12 54.1328L1136.1 48.3672C1137.4 47.6016 1138.84 47.0156 1140.44 46.6094C1142.03 46.1875 1143.74 45.9766 1145.57 45.9766ZM1146.39 61.1406L1144.94 61.2344C1143.89 61.2812 1143.1 61.5859 1142.57 62.1484C1142.04 62.6953 1141.77 63.5 1141.77 64.5625C1141.77 65.4688 1141.93 66.1484 1142.24 66.6016C1142.55 67.0547 1143.02 67.2812 1143.65 67.2812C1144.41 67.2812 1145.06 66.9375 1145.59 66.25C1146.12 65.5469 1146.39 64.625 1146.39 63.4844V61.1406ZM1181.1 46.4453V66.5312H1184.12V82.75H1176.53V73H1164.62V82.75H1157.1V66.5312H1159.4C1160.07 64.8438 1160.68 62.9297 1161.23 60.7891C1161.77 58.6484 1162.24 56.3672 1162.63 53.9453C1163.02 51.5078 1163.3 49.0078 1163.48 46.4453H1181.1ZM1173.32 52.9375H1169.99C1169.85 54.5469 1169.68 56.0312 1169.48 57.3906C1169.29 58.7344 1169.04 60.125 1168.73 61.5625C1168.41 63 1168.01 64.6562 1167.51 66.5312H1173.32V52.9375ZM1200.44 45.9766C1202.91 45.9766 1204.84 47.2109 1206.23 49.6797C1207.62 52.1328 1208.31 55.5078 1208.31 59.8047C1208.31 62.6328 1208 65.0703 1207.38 67.1172C1206.75 69.1484 1205.86 70.7188 1204.7 71.8281C1203.56 72.9219 1202.2 73.4688 1200.62 73.4688C1199.83 73.4688 1199.08 73.3359 1198.38 73.0703C1197.69 72.8047 1197.05 72.3906 1196.45 71.8281C1195.88 71.25 1195.34 70.5078 1194.86 69.6016H1194.62C1194.7 70.7891 1194.76 71.8125 1194.79 72.6719C1194.84 73.5156 1194.86 74.1875 1194.86 74.6875V84.5312H1187.08V46.4453H1193.34L1194.48 49.8672H1194.86C1195.45 48.7734 1196.02 47.9531 1196.57 47.4062C1197.13 46.8438 1197.72 46.4688 1198.33 46.2812C1198.95 46.0781 1199.66 45.9766 1200.44 45.9766ZM1197.84 52.4453C1197.13 52.4453 1196.56 52.6719 1196.12 53.125C1195.69 53.5781 1195.37 54.2969 1195.16 55.2812C1194.96 56.2656 1194.86 57.5625 1194.86 59.1719V60.7188C1194.86 62.125 1194.96 63.2812 1195.16 64.1875C1195.37 65.0781 1195.68 65.7422 1196.1 66.1797C1196.54 66.6016 1197.1 66.8125 1197.79 66.8125C1198.38 66.8125 1198.88 66.5625 1199.27 66.0625C1199.66 65.5469 1199.95 64.7734 1200.13 63.7422C1200.34 62.7109 1200.44 61.4297 1200.44 59.8984C1200.44 57.3828 1200.21 55.5156 1199.76 54.2969C1199.32 53.0625 1198.68 52.4453 1197.84 52.4453ZM1233.04 59.6641C1233.04 61.3672 1232.85 63.0391 1232.48 64.6797C1232.12 66.3047 1231.52 67.7812 1230.67 69.1094C1229.83 70.4375 1228.71 71.5 1227.32 72.2969C1225.95 73.0781 1224.23 73.4688 1222.19 73.4688C1220.31 73.4688 1218.7 73.0859 1217.34 72.3203C1215.98 71.5391 1214.86 70.5 1213.98 69.2031C1213.11 67.8906 1212.46 66.4141 1212.04 64.7734C1211.62 63.1172 1211.41 61.4141 1211.41 59.6641C1211.41 57.1172 1211.77 54.8125 1212.51 52.75C1213.24 50.6719 1214.41 49.0234 1216 47.8047C1217.61 46.5859 1219.7 45.9766 1222.28 45.9766C1224.44 45.9766 1226.32 46.5156 1227.93 47.5938C1229.54 48.6562 1230.79 50.2031 1231.68 52.2344C1232.59 54.2656 1233.04 56.7422 1233.04 59.6641ZM1219.26 59.7578C1219.26 61.3359 1219.36 62.6641 1219.56 63.7422C1219.78 64.8203 1220.11 65.6328 1220.55 66.1797C1220.98 66.7266 1221.55 67 1222.23 67C1222.97 67 1223.55 66.7344 1223.97 66.2031C1224.39 65.6562 1224.7 64.8359 1224.88 63.7422C1225.07 62.6484 1225.16 61.2891 1225.16 59.6641C1225.16 58.0391 1225.07 56.6953 1224.88 55.6328C1224.7 54.5703 1224.39 53.7734 1223.97 53.2422C1223.55 52.7109 1222.97 52.4453 1222.23 52.4453C1221.2 52.4453 1220.45 53.0391 1219.96 54.2266C1219.49 55.4141 1219.26 57.2578 1219.26 59.7578ZM1257.46 53.3125C1257.46 54.8438 1257.06 56.125 1256.27 57.1562C1255.48 58.1719 1254.41 58.8125 1253.03 59.0781V59.2656C1254.52 59.4844 1255.72 60.1484 1256.64 61.2578C1257.56 62.3516 1258.02 63.7344 1258.02 65.4062C1258.02 67.0781 1257.66 68.4844 1256.95 69.625C1256.24 70.75 1255.17 71.5938 1253.73 72.1562C1252.31 72.7188 1250.53 73 1248.39 73H1237.05V46.4453H1248.44C1250.44 46.4453 1252.1 46.6953 1253.43 47.1953C1254.77 47.6953 1255.78 48.4531 1256.45 49.4688C1257.12 50.4844 1257.46 51.7656 1257.46 53.3125ZM1250.17 64.5156C1250.17 63.6719 1249.95 63.0547 1249.52 62.6641C1249.09 62.2578 1248.46 62.0547 1247.62 62.0547H1244.83V67.2344H1247.62C1248.46 67.2344 1249.09 67.0078 1249.52 66.5547C1249.95 66.1016 1250.17 65.4219 1250.17 64.5156ZM1249.68 54.5312C1249.68 53.75 1249.49 53.1719 1249.12 52.7969C1248.76 52.4062 1248.21 52.2109 1247.48 52.2109H1244.83V56.5469H1247.48C1248.21 56.5469 1248.76 56.3594 1249.12 55.9844C1249.49 55.5938 1249.68 55.1094 1249.68 54.5312ZM1272.32 45.9766C1274.96 45.9766 1277.05 46.7656 1278.58 48.3438C1280.12 49.9219 1280.9 52.3359 1280.9 55.5859V73H1275.3L1273.98 69.4844H1273.84C1273.28 70.375 1272.68 71.1172 1272.04 71.7109C1271.41 72.3047 1270.7 72.7422 1269.88 73.0234C1269.09 73.3203 1268.13 73.4688 1267.02 73.4688C1265.51 73.4688 1264.29 73.0547 1263.37 72.2266C1262.45 71.3984 1261.77 70.3281 1261.35 69.0156C1260.95 67.7031 1260.74 66.3281 1260.74 64.8906C1260.74 62.0469 1261.5 59.9219 1263.02 58.5156C1264.55 57.1094 1266.77 56.3516 1269.67 56.2422L1273.14 56.1016V55.4219C1273.14 54.3438 1272.93 53.5312 1272.51 52.9844C1272.1 52.4375 1271.46 52.1641 1270.59 52.1641C1269.82 52.1641 1268.97 52.3281 1268.03 52.6562C1267.11 52.9688 1266.05 53.4609 1264.87 54.1328L1262.85 48.3672C1264.15 47.6016 1265.59 47.0156 1267.19 46.6094C1268.78 46.1875 1270.49 45.9766 1272.32 45.9766ZM1273.14 61.1406L1271.69 61.2344C1270.64 61.2812 1269.85 61.5859 1269.32 62.1484C1268.79 62.6953 1268.52 63.5 1268.52 64.5625C1268.52 65.4688 1268.68 66.1484 1268.99 66.6016C1269.3 67.0547 1269.77 67.2812 1270.4 67.2812C1271.16 67.2812 1271.81 66.9375 1272.34 66.25C1272.88 65.5469 1273.14 64.625 1273.14 63.4844V61.1406ZM1291.23 73H1283.03L1288.35 62.6875C1287.59 62.2969 1286.94 61.7344 1286.41 61C1285.89 60.25 1285.49 59.3594 1285.21 58.3281C1284.95 57.2969 1284.81 56.1719 1284.81 54.9531C1284.81 52.25 1285.59 50.1562 1287.13 48.6719C1288.7 47.1875 1290.88 46.4453 1293.67 46.4453H1304.15V73H1296.37V63.7891H1295.12L1291.23 73ZM1292.57 55.2344C1292.57 56.0469 1292.79 56.7188 1293.23 57.25C1293.68 57.7656 1294.33 58.0234 1295.17 58.0234H1296.37V52.2109H1295.12C1294.33 52.2109 1293.7 52.4922 1293.25 53.0547C1292.8 53.6172 1292.57 54.3438 1292.57 55.2344ZM1327.77 45.9766C1330.41 45.9766 1332.5 46.7656 1334.03 48.3438C1335.58 49.9219 1336.35 52.3359 1336.35 55.5859V73H1330.75L1329.44 69.4844H1329.3C1328.73 70.375 1328.13 71.1172 1327.49 71.7109C1326.87 72.3047 1326.15 72.7422 1325.34 73.0234C1324.54 73.3203 1323.59 73.4688 1322.48 73.4688C1320.96 73.4688 1319.74 73.0547 1318.82 72.2266C1317.9 71.3984 1317.23 70.3281 1316.8 69.0156C1316.4 67.7031 1316.2 66.3281 1316.2 64.8906C1316.2 62.0469 1316.95 59.9219 1318.47 58.5156C1320 57.1094 1322.22 56.3516 1325.12 56.2422L1328.59 56.1016V55.4219C1328.59 54.3438 1328.38 53.5312 1327.96 52.9844C1327.55 52.4375 1326.91 52.1641 1326.04 52.1641C1325.27 52.1641 1324.42 52.3281 1323.48 52.6562C1322.56 52.9688 1321.51 53.4609 1320.32 54.1328L1318.3 48.3672C1319.6 47.6016 1321.05 47.0156 1322.64 46.6094C1324.23 46.1875 1325.95 45.9766 1327.77 45.9766ZM1328.59 61.1406L1327.14 61.2344C1326.09 61.2812 1325.3 61.5859 1324.77 62.1484C1324.24 62.6953 1323.98 63.5 1323.98 64.5625C1323.98 65.4688 1324.13 66.1484 1324.45 66.6016C1324.76 67.0547 1325.23 67.2812 1325.85 67.2812C1326.62 67.2812 1327.27 66.9375 1327.8 66.25C1328.33 65.5469 1328.59 64.625 1328.59 63.4844V61.1406ZM1348.89 46.4453V56.1484H1353.98V46.4453H1361.76V73H1353.98V62.6875H1348.89V73H1341.11V46.4453H1348.89ZM1374.06 46.4453V54.2734C1374.06 54.9297 1374.05 55.5703 1374.04 56.1953C1374.02 56.8047 1373.99 57.4297 1373.95 58.0703C1373.91 58.6953 1373.87 59.3672 1373.8 60.0859C1373.76 60.7891 1373.7 61.5703 1373.62 62.4297L1381.16 46.4453H1389.37V73H1381.98V64.6562C1381.98 63.8125 1382 62.9766 1382.03 62.1484C1382.08 61.3203 1382.13 60.4844 1382.2 59.6406C1382.26 58.7969 1382.33 57.9375 1382.41 57.0625L1374.88 73H1366.61V46.4453H1374.06ZM1422.88 46.4453V73H1415.55V62.1016C1415.55 60.9766 1415.59 59.7969 1415.66 58.5625C1415.76 57.3125 1415.86 56.1406 1415.97 55.0469H1415.78L1411.16 73H1405.84L1401.23 55.0469H1401.04C1401.16 56.2188 1401.26 57.3828 1401.32 58.5391C1401.4 59.6953 1401.44 60.8984 1401.44 62.1484V73H1394.22V46.4453H1405.12L1408.54 60.3672L1412.03 46.4453H1422.88ZM1438.07 45.9766C1440.71 45.9766 1442.8 46.7656 1444.33 48.3438C1445.88 49.9219 1446.65 52.3359 1446.65 55.5859V73H1441.05L1439.73 69.4844H1439.59C1439.03 70.375 1438.43 71.1172 1437.79 71.7109C1437.16 72.3047 1436.45 72.7422 1435.63 73.0234C1434.84 73.3203 1433.88 73.4688 1432.77 73.4688C1431.26 73.4688 1430.04 73.0547 1429.12 72.2266C1428.2 71.3984 1427.52 70.3281 1427.1 69.0156C1426.7 67.7031 1426.49 66.3281 1426.49 64.8906C1426.49 62.0469 1427.25 59.9219 1428.77 58.5156C1430.3 57.1094 1432.52 56.3516 1435.42 56.2422L1438.89 56.1016V55.4219C1438.89 54.3438 1438.68 53.5312 1438.26 52.9844C1437.85 52.4375 1437.21 52.1641 1436.34 52.1641C1435.57 52.1641 1434.72 52.3281 1433.78 52.6562C1432.86 52.9688 1431.8 53.4609 1430.62 54.1328L1428.6 48.3672C1429.9 47.6016 1431.34 47.0156 1432.94 46.6094C1434.53 46.1875 1436.24 45.9766 1438.07 45.9766ZM1438.89 61.1406L1437.44 61.2344C1436.39 61.2812 1435.6 61.5859 1435.07 62.1484C1434.54 62.6953 1434.27 63.5 1434.27 64.5625C1434.27 65.4688 1434.43 66.1484 1434.74 66.6016C1435.05 67.0547 1435.52 67.2812 1436.15 67.2812C1436.91 67.2812 1437.56 66.9375 1438.09 66.25C1438.62 65.5469 1438.89 64.625 1438.89 63.4844V61.1406ZM1475.85 82.75H1468.3V73H1451.41V46.4453H1459.19V66.5312H1464.77V46.4453H1472.55V66.5312H1475.85V82.75ZM1486.28 46.4453V54.2734C1486.28 54.9297 1486.27 55.5703 1486.26 56.1953C1486.24 56.8047 1486.21 57.4297 1486.16 58.0703C1486.13 58.6953 1486.09 59.3672 1486.02 60.0859C1485.98 60.7891 1485.91 61.5703 1485.84 62.4297L1493.38 46.4453H1501.59V73H1494.2V64.6562C1494.2 63.8125 1494.22 62.9766 1494.25 62.1484C1494.3 61.3203 1494.35 60.4844 1494.41 59.6406C1494.48 58.7969 1494.55 57.9375 1494.62 57.0625L1487.1 73H1478.83V46.4453H1486.28ZM1512.02 73H1503.81L1509.13 62.6875C1508.37 62.2969 1507.72 61.7344 1507.19 61C1506.67 60.25 1506.27 59.3594 1505.99 58.3281C1505.73 57.2969 1505.59 56.1719 1505.59 54.9531C1505.59 52.25 1506.37 50.1562 1507.91 48.6719C1509.48 47.1875 1511.66 46.4453 1514.45 46.4453H1524.93V73H1517.15V63.7891H1515.91L1512.02 73ZM1513.35 55.2344C1513.35 56.0469 1513.57 56.7188 1514.01 57.25C1514.46 57.7656 1515.11 58.0234 1515.95 58.0234H1517.15V52.2109H1515.91C1515.11 52.2109 1514.48 52.4922 1514.03 53.0547C1513.58 53.6172 1513.35 54.3438 1513.35 55.2344Z" fill="white"/>
<path d="M1611.32 3C1611.72 17.8926 1600.62 47.6778 1553 47.6778" stroke="white" stroke-width="2.29117"/>
<path d="M1611.3 92.3555C1611.71 77.8447 1600.62 48.8233 1553 48.8233" stroke="white" stroke-width="2.29117"/>
<path d="M1553 48L2251 48" stroke="white" stroke-width="2.29117"/>
<path d="M971.237 1C970.822 15.8926 982.206 45.6778 1031.07 45.6778" stroke="white" stroke-width="2.29117"/>
<path d="M972.18 89.5322C971.764 75.0215 983.147 46 1032 46" stroke="white" stroke-width="2.29117"/>
<path d="M1032 46.0001L0 46" stroke="white" stroke-width="2.29117"/>
</svg>
