<svg width="1920" height="93" viewBox="0 0 1920 93" fill="none" xmlns="http://www.w3.org/2000/svg">
<path d="M1029.84 64V29.7344H1052.73V64H1044.58V36.7891H1037.99V64H1029.84ZM1083.48 46.8203C1083.48 49.6953 1083.2 52.2344 1082.64 54.4375C1082.09 56.625 1081.27 58.4688 1080.16 59.9688C1079.06 61.4531 1077.7 62.5781 1076.08 63.3438C1074.47 64.0938 1072.6 64.4688 1070.48 64.4688C1068.37 64.4688 1066.5 64.0859 1064.88 63.3203C1063.25 62.5547 1061.88 61.4297 1060.77 59.9453C1059.66 58.4453 1058.83 56.5938 1058.27 54.3906C1057.7 52.1875 1057.42 49.6484 1057.42 46.7734C1057.42 42.9609 1057.91 39.75 1058.9 37.1406C1059.9 34.5312 1061.37 32.5547 1063.3 31.2109C1065.26 29.8672 1067.65 29.1953 1070.48 29.1953C1073.32 29.1953 1075.7 29.8594 1077.62 31.1875C1079.56 32.5156 1081.02 34.4922 1082.01 37.1172C1082.99 39.7266 1083.48 42.9609 1083.48 46.8203ZM1065.91 46.8203C1065.91 49.1484 1066.08 51.0938 1066.42 52.6562C1066.77 54.2188 1067.27 55.3906 1067.95 56.1719C1068.63 56.9375 1069.48 57.3203 1070.48 57.3203C1071.51 57.3203 1072.35 56.9453 1073.01 56.1953C1073.68 55.4453 1074.17 54.2969 1074.48 52.75C1074.81 51.1875 1074.98 49.2109 1074.98 46.8203C1074.98 43.1953 1074.6 40.5234 1073.85 38.8047C1073.12 37.0703 1071.99 36.2031 1070.48 36.2031C1069.48 36.2031 1068.63 36.6016 1067.95 37.3984C1067.27 38.1797 1066.77 39.3594 1066.42 40.9375C1066.08 42.5 1065.91 44.4609 1065.91 46.8203ZM1098.37 29.7344C1101.9 29.7344 1104.55 30.6797 1106.31 32.5703C1108.09 34.4609 1108.98 37.1484 1108.98 40.6328C1108.98 42.3359 1108.77 43.9219 1108.33 45.3906C1107.89 46.8438 1107.22 48.1172 1106.31 49.2109C1105.41 50.2891 1104.26 51.1328 1102.87 51.7422C1101.48 52.3359 1099.84 52.6328 1097.95 52.6328H1096.35V64H1088.2V29.7344H1098.37ZM1097.59 36.6484H1096.35V45.7188H1097.08C1097.83 45.7188 1098.48 45.5547 1099.05 45.2266C1099.61 44.8828 1100.04 44.3438 1100.34 43.6094C1100.65 42.8594 1100.8 41.8828 1100.8 40.6797C1100.8 39.3359 1100.54 38.3281 1100.01 37.6562C1099.48 36.9844 1098.67 36.6484 1097.59 36.6484ZM1125.46 64H1117.35V36.7891H1111.16V29.7344H1131.6V36.7891H1125.46V64ZM1154.31 29.2422V33.4609C1157.02 33.4609 1159.29 34.0234 1161.13 35.1484C1162.98 36.2578 1164.37 37.7812 1165.3 39.7188C1166.26 41.6406 1166.73 43.8281 1166.73 46.2812C1166.73 48.2344 1166.47 50.0078 1165.94 51.6016C1165.41 53.1797 1164.62 54.5391 1163.57 55.6797C1162.52 56.8047 1161.23 57.6719 1159.68 58.2812C1158.13 58.8906 1156.34 59.1953 1154.31 59.1953V64.4688H1146.44V59.1953C1144.34 59.1953 1142.52 58.8984 1140.95 58.3047C1139.39 57.6953 1138.09 56.8281 1137.06 55.7031C1136.05 54.5781 1135.28 53.2188 1134.77 51.625C1134.27 50.0156 1134.02 48.2188 1134.02 46.2344C1134.02 44.5 1134.23 42.8672 1134.67 41.3359C1135.12 39.7891 1135.84 38.4297 1136.8 37.2578C1137.79 36.0703 1139.07 35.1406 1140.65 34.4688C1142.24 33.7969 1144.17 33.4609 1146.44 33.4609V29.2422H1154.31ZM1146.44 40.1875C1145.42 40.1875 1144.59 40.4062 1143.93 40.8438C1143.27 41.2812 1142.79 41.9453 1142.48 42.8359C1142.18 43.7109 1142.03 44.8281 1142.03 46.1875C1142.03 47.75 1142.19 48.9922 1142.5 49.9141C1142.83 50.8359 1143.32 51.4922 1143.98 51.8828C1144.63 52.2734 1145.45 52.4688 1146.44 52.4688V40.1875ZM1154.31 40.1875V52.4688C1155.34 52.4688 1156.18 52.25 1156.82 51.8125C1157.48 51.375 1157.95 50.6953 1158.25 49.7734C1158.56 48.8359 1158.72 47.6406 1158.72 46.1875C1158.72 44.9219 1158.55 43.8438 1158.23 42.9531C1157.9 42.0469 1157.41 41.3594 1156.75 40.8906C1156.11 40.4219 1155.3 40.1875 1154.31 40.1875ZM1196.27 46.8203C1196.27 49.6953 1195.98 52.2344 1195.42 54.4375C1194.88 56.625 1194.05 58.4688 1192.94 59.9688C1191.84 61.4531 1190.48 62.5781 1188.86 63.3438C1187.25 64.0938 1185.38 64.4688 1183.26 64.4688C1181.15 64.4688 1179.28 64.0859 1177.66 63.3203C1176.03 62.5547 1174.66 61.4297 1173.55 59.9453C1172.45 58.4453 1171.61 56.5938 1171.05 54.3906C1170.48 52.1875 1170.2 49.6484 1170.2 46.7734C1170.2 42.9609 1170.7 39.75 1171.68 37.1406C1172.68 34.5312 1174.15 32.5547 1176.09 31.2109C1178.04 29.8672 1180.43 29.1953 1183.26 29.1953C1186.1 29.1953 1188.48 29.8594 1190.41 31.1875C1192.34 32.5156 1193.8 34.4922 1194.79 37.1172C1195.77 39.7266 1196.27 42.9609 1196.27 46.8203ZM1178.69 46.8203C1178.69 49.1484 1178.86 51.0938 1179.2 52.6562C1179.55 54.2188 1180.05 55.3906 1180.73 56.1719C1181.41 56.9375 1182.26 57.3203 1183.26 57.3203C1184.29 57.3203 1185.13 56.9453 1185.79 56.1953C1186.46 55.4453 1186.95 54.2969 1187.27 52.75C1187.59 51.1875 1187.76 49.2109 1187.76 46.8203C1187.76 43.1953 1187.38 40.5234 1186.63 38.8047C1185.9 37.0703 1184.77 36.2031 1183.26 36.2031C1182.26 36.2031 1181.41 36.6016 1180.73 37.3984C1180.05 38.1797 1179.55 39.3594 1179.2 40.9375C1178.86 42.5 1178.69 44.4609 1178.69 46.8203ZM1224.58 64H1216.42V37.3047H1212.34C1212.23 39.1484 1212.08 41.1016 1211.88 43.1641C1211.69 45.2266 1211.48 47.2344 1211.24 49.1875C1211.02 51.125 1210.8 52.8516 1210.56 54.3672C1210.33 55.8672 1210.11 56.9688 1209.91 57.6719C1209.44 59.2812 1208.89 60.5859 1208.27 61.5859C1207.66 62.5859 1206.87 63.3203 1205.9 63.7891C1204.95 64.2422 1203.72 64.4688 1202.22 64.4688C1201.42 64.4688 1200.72 64.4219 1200.11 64.3281C1199.52 64.2344 1199.02 64.1094 1198.61 63.9531V57.1328C1198.92 57.2734 1199.23 57.3828 1199.52 57.4609C1199.82 57.5391 1200.09 57.5781 1200.34 57.5781C1200.78 57.5781 1201.14 57.4375 1201.42 57.1562C1201.72 56.8594 1201.98 56.375 1202.2 55.7031C1202.41 55.0156 1202.62 54.1016 1202.8 52.9609C1202.91 52.1953 1203.06 51 1203.25 49.375C1203.45 47.75 1203.67 45.8594 1203.91 43.7031C1204.14 41.5312 1204.37 39.2422 1204.59 36.8359C1204.82 34.4297 1205.02 32.0625 1205.2 29.7344H1224.58V64ZM1230.23 29.7344H1238.15V42.0156C1238.15 42.5469 1238.14 43.1172 1238.12 43.7266C1238.11 44.3359 1238.09 44.9922 1238.05 45.6953C1238.04 46.3828 1238.01 47.1172 1237.96 47.8984C1237.91 48.6797 1237.86 49.5 1237.8 50.3594H1238.01L1246.87 29.7344H1256.71V64H1248.79V51.625C1248.79 51.125 1248.8 50.5703 1248.81 49.9609C1248.83 49.3516 1248.85 48.6875 1248.88 47.9688C1248.91 47.2344 1248.95 46.4531 1249 45.625C1249.06 44.7812 1249.12 43.8828 1249.19 42.9297H1249L1240.02 64H1230.23V29.7344ZM1287.44 46.8203C1287.44 49.6953 1287.16 52.2344 1286.59 54.4375C1286.05 56.625 1285.22 58.4688 1284.11 59.9688C1283.02 61.4531 1281.66 62.5781 1280.03 63.3438C1278.42 64.0938 1276.55 64.4688 1274.43 64.4688C1272.32 64.4688 1270.45 64.0859 1268.83 63.3203C1267.2 62.5547 1265.84 61.4297 1264.73 59.9453C1263.62 58.4453 1262.78 56.5938 1262.22 54.3906C1261.66 52.1875 1261.38 49.6484 1261.38 46.7734C1261.38 42.9609 1261.87 39.75 1262.85 37.1406C1263.85 34.5312 1265.32 32.5547 1267.26 31.2109C1269.21 29.8672 1271.6 29.1953 1274.43 29.1953C1277.27 29.1953 1279.66 29.8594 1281.58 31.1875C1283.52 32.5156 1284.98 34.4922 1285.96 37.1172C1286.95 39.7266 1287.44 42.9609 1287.44 46.8203ZM1269.86 46.8203C1269.86 49.1484 1270.03 51.0938 1270.38 52.6562C1270.72 54.2188 1271.23 55.3906 1271.9 56.1719C1272.59 56.9375 1273.43 57.3203 1274.43 57.3203C1275.46 57.3203 1276.3 56.9453 1276.96 56.1953C1277.63 55.4453 1278.12 54.2969 1278.44 52.75C1278.77 51.1875 1278.93 49.2109 1278.93 46.8203C1278.93 43.1953 1278.55 40.5234 1277.8 38.8047C1277.07 37.0703 1275.95 36.2031 1274.43 36.2031C1273.43 36.2031 1272.59 36.6016 1271.9 37.3984C1271.23 38.1797 1270.72 39.3594 1270.38 40.9375C1270.03 42.5 1269.86 44.4609 1269.86 46.8203Z" fill="white"/>
<path d="M1421.17 3C1421.65 17.8926 1408.68 47.6778 1353 47.6778" stroke="white" stroke-width="2.29117"/>
<path d="M1421.16 92.3555C1421.63 77.8447 1408.66 48.8233 1353 48.8233" stroke="white" stroke-width="2.29117"/>
<path d="M1353 48L2169 48" stroke="white" stroke-width="2.29117"/>
<path d="M889.237 1C888.822 15.8926 900.206 45.6778 949.069 45.6778" stroke="white" stroke-width="2.29117"/>
<path d="M890.18 89.5322C889.764 75.0215 901.147 46 950 46" stroke="white" stroke-width="2.29117"/>
<path d="M950 46.0001L-82 46" stroke="white" stroke-width="2.29117"/>
</svg>
