<svg width="1313" height="1991" viewBox="0 0 1313 1991" fill="none" xmlns="http://www.w3.org/2000/svg">
<path d="M385.935 1937C385.957 1937 385.978 1937 386 1937H385.873C363.502 1936.91 363.499 1915 363.499 1915C363.499 1915 363.498 1936.91 341.127 1937H341C341.022 1937 341.043 1937 341.065 1937C341.043 1937 341.022 1937 341 1937H341.127C363.498 1937.09 363.499 1959 363.499 1959C363.499 1959 363.501 1937.09 385.871 1937H385.998C385.979 1937 385.957 1937 385.935 1937Z" fill="#79E7D4"/>
<path d="M443.903 1958C443.935 1958 443.968 1958 444 1958H443.808C410.004 1957.87 409.999 1925 409.999 1925C409.999 1925 409.996 1957.87 376.192 1958H376C376.032 1958 376.065 1958 376.097 1958C376.065 1958 376.032 1958 376 1958H376.192C409.996 1958.13 409.999 1991 409.999 1991C409.999 1991 410.001 1958.13 443.805 1958H443.998C443.968 1958 443.935 1958 443.903 1958Z" fill="#79E7D4"/>
<path d="M69.8997 1764.5C69.9331 1764.5 69.9665 1764.5 70 1764.5H69.8019C35.0039 1764.35 34.9987 1727 34.9987 1727C34.9987 1727 34.9961 1764.35 0.198125 1764.5H0C0.0334497 1764.5 0.0668995 1764.5 0.100349 1764.5C0.0668995 1764.5 0.0334497 1764.5 0 1764.5H0.198125C34.9961 1764.65 34.9987 1802 34.9987 1802C34.9987 1802 35.0013 1764.65 69.7993 1764.5H69.9974C69.9666 1764.5 69.9331 1764.5 69.8997 1764.5Z" fill="#79E7D4"/>
<path d="M1288.9 708.5C1288.93 708.5 1288.97 708.497 1289 708.497H1288.8C1254 708.354 1254 671 1254 671C1254 671 1254 708.354 1219.2 708.497H1219C1219.03 708.497 1219.07 708.5 1219.1 708.5C1219.07 708.5 1219.03 708.503 1219 708.503H1219.2C1254 708.646 1254 746 1254 746C1254 746 1254 708.646 1288.8 708.503H1289C1288.97 708.5 1288.93 708.5 1288.9 708.5Z" fill="#79E7D4"/>
<path d="M982.07 1505C982.047 1505 982.023 1505 982 1505H982.139C1006.5 1504.89 1006.5 1477 1006.5 1477C1006.5 1477 1006.5 1504.89 1030.86 1505H1031C1030.98 1505 1030.95 1505 1030.93 1505C1030.95 1505 1030.98 1505 1031 1505H1030.86C1006.5 1505.11 1006.5 1533 1006.5 1533C1006.5 1533 1006.5 1505.11 982.14 1505H982.002C982.023 1505 982.047 1505 982.07 1505Z" fill="#79E7D4"/>
<path d="M140.057 463.5C140.038 463.5 140.019 463.499 140 463.499H140.113C159.998 463.424 160.001 444 160.001 444C160.001 444 160.002 463.424 179.887 463.499H180C179.981 463.499 179.962 463.5 179.943 463.5C179.962 463.5 179.981 463.501 180 463.501H179.887C160.002 463.576 160.001 483 160.001 483C160.001 483 159.999 463.576 140.115 463.501H140.001C140.019 463.5 140.038 463.5 140.057 463.5Z" fill="#79E7D4"/>
<path d="M1263.07 24.5C1263.05 24.5 1263.02 24.4982 1263 24.4982H1263.14C1288 24.4045 1288 0 1288 0C1288 0 1288 24.4045 1312.86 24.4982H1313C1312.98 24.4982 1312.95 24.5 1312.93 24.5C1312.95 24.5 1312.98 24.5018 1313 24.5018H1312.86C1288 24.5955 1288 49 1288 49C1288 49 1288 24.5955 1263.14 24.5018H1263C1263.02 24.5 1263.05 24.5 1263.07 24.5Z" fill="#79E7D4"/>
<path d="M87.9384 1796.5C87.9589 1796.5 87.9795 1796.5 88 1796.5H87.8783C66.5024 1796.41 66.4992 1773 66.4992 1773C66.4992 1773 66.4976 1796.41 45.1217 1796.5H45C45.0205 1796.5 45.0411 1796.5 45.0616 1796.5C45.0411 1796.5 45.0205 1796.5 45 1796.5H45.1217C66.4976 1796.59 66.4992 1820 66.4992 1820C66.4992 1820 66.5008 1796.59 87.8767 1796.5H87.9984C87.9795 1796.5 87.9589 1796.5 87.9384 1796.5Z" fill="#79E7D4"/>
<path d="M1306.94 740.5C1306.96 740.5 1306.98 740.498 1307 740.498H1306.88C1285.5 740.408 1285.5 717 1285.5 717C1285.5 717 1285.5 740.408 1264.12 740.498H1264C1264.02 740.498 1264.04 740.5 1264.06 740.5C1264.04 740.5 1264.02 740.502 1264 740.502H1264.12C1285.5 740.592 1285.5 764 1285.5 764C1285.5 764 1285.5 740.592 1306.88 740.502H1307C1306.98 740.5 1306.96 740.5 1306.94 740.5Z" fill="#79E7D4"/>
<path d="M969.043 1528.5C969.029 1528.5 969.014 1528.5 969 1528.5H969.085C983.998 1528.43 984.001 1511 984.001 1511C984.001 1511 984.002 1528.43 998.915 1528.5H999C998.986 1528.5 998.971 1528.5 998.957 1528.5C998.971 1528.5 998.986 1528.5 999 1528.5H998.915C984.002 1528.57 984.001 1546 984.001 1546C984.001 1546 983.999 1528.57 969.086 1528.5H969.001C969.014 1528.5 969.029 1528.5 969.043 1528.5Z" fill="#79E7D4"/>
</svg>
